<svg width="140" height="130" viewBox="0 0 140 130" fill="none" xmlns="http://www.w3.org/2000/svg">
<path d="M75.0672 122.731C107.419 122.731 133.643 96.5072 133.643 64.0447C133.643 31.5822 107.303 5.35806 75.0672 5.35806C42.7203 5.35806 16.4961 31.5822 16.4961 64.0447C16.4961 96.5072 42.7203 122.731 75.0672 122.731Z" fill="#F1F3F9"/>
<path fill-rule="evenodd" clip-rule="evenodd" d="M130.105 87.3588C133.235 79.9437 134.799 72.1724 134.799 64.0447C134.799 55.9202 133.229 48.1485 130.089 40.7295C127.059 33.5719 122.783 27.2324 117.261 21.7111C111.746 16.1957 105.416 11.925 98.2708 8.89904C90.8785 5.76823 83.1443 4.20282 75.0682 4.20282C66.9664 4.20282 59.217 5.76819 51.8198 8.89893C44.6727 11.9238 38.3444 16.1947 32.835 21.7117C27.3239 27.2303 23.0575 33.5699 20.0356 40.7306C16.9064 48.1459 15.3418 55.9172 15.3418 64.0447C15.3418 72.1721 16.9064 79.9435 20.0356 87.3588C23.0574 94.5195 27.3239 100.859 32.835 106.378C38.3444 111.895 44.6727 116.166 51.8198 119.191C59.217 122.321 66.9664 123.887 75.0682 123.887C83.171 123.887 90.9213 122.321 98.3192 119.191C105.467 116.166 111.796 111.895 117.305 106.378C122.817 100.859 127.083 94.5196 130.105 87.3588ZM127.961 41.6301C130.979 48.7613 132.489 56.2328 132.489 64.0447C132.489 71.8607 130.985 79.3326 127.977 86.4605C125.071 93.3444 120.969 99.4393 115.67 104.745C110.373 110.049 104.289 114.155 97.4188 117.063C90.3088 120.072 82.8586 121.576 75.0682 121.576C67.2789 121.576 59.8297 120.072 52.7203 117.063C45.8502 114.155 39.7668 110.049 34.4699 104.745C29.1712 99.4391 25.0693 93.3442 22.1643 86.4605C19.1563 79.3324 17.6523 71.8605 17.6523 64.0447C17.6523 56.2289 19.1563 48.757 22.1643 41.629C25.0693 34.7451 29.1712 28.6502 34.4699 23.3443C39.7668 18.0402 45.8502 13.9344 52.7203 11.0267C59.8297 8.01778 67.2789 6.51331 75.0682 6.51331C82.8315 6.51331 90.2654 8.01774 97.3697 11.0266C104.238 13.9356 110.324 18.0417 115.628 23.3448C120.937 28.6539 125.048 34.749 127.961 41.6301Z" fill="#D6DCE8"/>
<path d="M129.834 25.5749C132.445 25.5749 134.571 23.4493 134.571 20.8384C134.571 18.2275 132.445 16.1019 129.834 16.1019C127.212 16.1019 125.098 18.2275 125.098 20.8384C125.098 23.4493 127.212 25.5749 129.834 25.5749Z" fill="#EAEEF9"/>
<path d="M136.764 7.09092C138.543 7.09092 139.999 5.64685 139.999 3.85622C139.999 2.06558 138.543 0.621521 136.764 0.621521C134.973 0.621521 133.529 2.06558 133.529 3.85622C133.529 5.64685 134.973 7.09092 136.764 7.09092Z" fill="#EAEEF9"/>
<path d="M19.6195 25.4594C21.4066 25.4594 22.8542 24.0153 22.8542 22.2247C22.8542 20.4341 21.4066 18.99 19.6195 18.99C17.8334 18.99 16.3848 20.4341 16.3848 22.2247C16.3848 24.0153 17.8334 25.4594 19.6195 25.4594Z" fill="#EAEEF9"/>
<path d="M12.0146 89.3793C12.0146 89.4776 12.0122 89.5759 12.0073 89.6741C12.0025 89.7723 11.9953 89.8703 11.9857 89.9681C11.976 90.066 11.964 90.1635 11.9495 90.2608C11.9351 90.358 11.9184 90.4548 11.8992 90.5513C11.88 90.6477 11.8585 90.7436 11.8346 90.839C11.8106 90.9343 11.7844 91.029 11.7559 91.1231C11.7274 91.2172 11.6965 91.3105 11.6634 91.4031C11.6303 91.4957 11.5949 91.5874 11.5573 91.6782C11.5197 91.769 11.4799 91.8589 11.4378 91.9478C11.3958 92.0366 11.3516 92.1244 11.3053 92.2111C11.2589 92.2978 11.2105 92.3833 11.1599 92.4677C11.1094 92.552 11.0568 92.635 11.0022 92.7168C10.9476 92.7985 10.891 92.8789 10.8324 92.9578C10.7738 93.0368 10.7134 93.1143 10.651 93.1903C10.5886 93.2663 10.5244 93.3407 10.4584 93.4136C10.3924 93.4864 10.3246 93.5576 10.2551 93.6271C10.1856 93.6966 10.1144 93.7644 10.0416 93.8304C9.9687 93.8964 9.89428 93.9606 9.81828 94.023C9.74228 94.0854 9.6648 94.1458 9.58583 94.2044C9.50686 94.263 9.42651 94.3196 9.34476 94.3742C9.26302 94.4288 9.17998 94.4814 9.09566 94.5319C9.01133 94.5825 8.92582 94.6309 8.83911 94.6773C8.75241 94.7236 8.66462 94.7678 8.57575 94.8098C8.48687 94.8519 8.39702 94.8917 8.30618 94.9294C8.21536 94.9669 8.12366 95.0023 8.03109 95.0354C7.93852 95.0685 7.8452 95.0994 7.75112 95.1279C7.65704 95.1564 7.56231 95.1827 7.46695 95.2066C7.37158 95.2305 7.27568 95.252 7.17926 95.2712C7.08284 95.2904 6.986 95.3072 6.88875 95.3216C6.7915 95.336 6.69396 95.348 6.59611 95.3577C6.49827 95.3673 6.40025 95.3745 6.30206 95.3793C6.20386 95.3842 6.10561 95.3866 6.00729 95.3866C5.90898 95.3866 5.81073 95.3842 5.71253 95.3793C5.61434 95.3745 5.51632 95.3673 5.41848 95.3577C5.32063 95.348 5.22309 95.336 5.12584 95.3216C5.02859 95.3072 4.93175 95.2904 4.83533 95.2712C4.7389 95.252 4.64301 95.2305 4.54764 95.2066C4.45228 95.1827 4.35755 95.1564 4.26347 95.1279C4.16939 95.0994 4.07606 95.0685 3.98349 95.0354C3.89093 95.0023 3.79923 94.9669 3.70841 94.9294C3.61757 94.8917 3.52772 94.8519 3.43884 94.8098C3.34997 94.7678 3.26218 94.7236 3.17548 94.6773C3.08877 94.6309 3.00326 94.5825 2.91893 94.5319C2.8346 94.4814 2.75156 94.4288 2.66982 94.3742C2.58808 94.3196 2.50772 94.263 2.42875 94.2044C2.34978 94.1458 2.2723 94.0854 2.1963 94.023C2.12031 93.9606 2.04589 93.8964 1.97304 93.8304C1.9002 93.7644 1.82901 93.6966 1.75949 93.6271C1.68998 93.5576 1.6222 93.4864 1.55618 93.4136C1.49016 93.3407 1.42597 93.2663 1.3636 93.1903C1.30122 93.1143 1.24075 93.0368 1.18219 92.9578C1.12362 92.8789 1.06703 92.7985 1.01241 92.7168C0.957792 92.635 0.90521 92.552 0.854666 92.4677C0.804122 92.3833 0.755678 92.2978 0.709333 92.2111C0.662989 92.1244 0.618799 92.0366 0.576765 91.9478C0.53473 91.8589 0.494901 91.769 0.457278 91.6782C0.419655 91.5874 0.384283 91.4957 0.351162 91.4031C0.318041 91.3105 0.287211 91.2172 0.258672 91.1231C0.230133 91.029 0.20392 90.9343 0.180031 90.839C0.156142 90.7436 0.134608 90.6477 0.115428 90.5513C0.0962484 90.4548 0.0794455 90.358 0.0650198 90.2608C0.0505942 90.1635 0.0385632 90.066 0.0289267 89.9681C0.0192903 89.8703 0.0120601 89.7723 0.00723605 89.6741C0.00241202 89.5759 0 89.4776 0 89.3793C0 89.281 0.00241202 89.1827 0.00723605 89.0845C0.0120601 88.9863 0.0192903 88.8883 0.0289267 88.7905C0.0385632 88.6926 0.0505942 88.5951 0.0650198 88.4978C0.0794455 88.4006 0.0962484 88.3038 0.115428 88.2073C0.134608 88.1109 0.156142 88.015 0.180031 87.9196C0.20392 87.8243 0.230133 87.7296 0.258672 87.6355C0.287211 87.5414 0.318041 87.4481 0.351162 87.3555C0.384283 87.2629 0.419655 87.1712 0.457278 87.0804C0.494901 86.9896 0.53473 86.8997 0.576765 86.8108C0.618799 86.722 0.662989 86.6342 0.709333 86.5475C0.755678 86.4608 0.804122 86.3753 0.854666 86.2909C0.90521 86.2066 0.957792 86.1236 1.01241 86.0418C1.06703 85.9601 1.12362 85.8797 1.18219 85.8008C1.24075 85.7218 1.30122 85.6443 1.3636 85.5683C1.42597 85.4923 1.49016 85.4179 1.55618 85.3451C1.6222 85.2722 1.68998 85.201 1.75949 85.1315C1.82901 85.062 1.9002 84.9942 1.97304 84.9282C2.04589 84.8622 2.12031 84.798 2.1963 84.7356C2.2723 84.6732 2.34978 84.6128 2.42875 84.5542C2.50772 84.4956 2.58808 84.439 2.66982 84.3844C2.75156 84.3298 2.8346 84.2772 2.91893 84.2267C3.00326 84.1761 3.08877 84.1277 3.17548 84.0813C3.26218 84.035 3.34997 83.9908 3.43884 83.9488C3.52772 83.9067 3.61757 83.8669 3.70841 83.8293C3.79923 83.7917 3.89093 83.7563 3.98349 83.7232C4.07606 83.69 4.16939 83.6592 4.26347 83.6307C4.35755 83.6021 4.45228 83.5759 4.54764 83.552C4.64301 83.5282 4.7389 83.5066 4.83533 83.4874C4.93175 83.4683 5.02859 83.4515 5.12584 83.437C5.22309 83.4226 5.32063 83.4106 5.41848 83.4009C5.51632 83.3913 5.61434 83.3841 5.71253 83.3792C5.81073 83.3744 5.90898 83.372 6.00729 83.372C6.10561 83.372 6.20386 83.3744 6.30206 83.3792C6.40025 83.3841 6.49827 83.3913 6.59611 83.4009C6.69396 83.4106 6.7915 83.4226 6.88875 83.437C6.986 83.4515 7.08284 83.4683 7.17926 83.4874C7.27568 83.5066 7.37158 83.5282 7.46695 83.552C7.56231 83.5759 7.65704 83.6021 7.75112 83.6307C7.8452 83.6592 7.93852 83.69 8.03109 83.7232C8.12366 83.7563 8.21536 83.7917 8.30618 83.8293C8.39702 83.8669 8.48687 83.9067 8.57575 83.9488C8.66462 83.9908 8.75241 84.035 8.83911 84.0813C8.92582 84.1277 9.01133 84.1761 9.09566 84.2267C9.17998 84.2772 9.26302 84.3298 9.34476 84.3844C9.42651 84.439 9.50686 84.4956 9.58583 84.5542C9.6648 84.6128 9.74228 84.6732 9.81828 84.7356C9.89428 84.798 9.9687 84.8622 10.0416 84.9282C10.1144 84.9942 10.1856 85.062 10.2551 85.1315C10.3246 85.201 10.3924 85.2722 10.4584 85.3451C10.5244 85.4179 10.5886 85.4923 10.651 85.5683C10.7134 85.6443 10.7738 85.7218 10.8324 85.8008C10.891 85.8797 10.9476 85.9601 11.0022 86.0418C11.0568 86.1236 11.1094 86.2066 11.1599 86.2909C11.2105 86.3753 11.2589 86.4608 11.3053 86.5475C11.3516 86.6342 11.3958 86.722 11.4378 86.8108C11.4799 86.8997 11.5197 86.9896 11.5573 87.0804C11.5949 87.1712 11.6303 87.2629 11.6634 87.3555C11.6965 87.4481 11.7274 87.5414 11.7559 87.6355C11.7844 87.7296 11.8106 87.8243 11.8346 87.9196C11.8585 88.015 11.88 88.1109 11.8992 88.2073C11.9184 88.3038 11.9351 88.4006 11.9495 88.4978C11.964 88.5951 11.976 88.6926 11.9857 88.7905C11.9953 88.8883 12.0025 88.9863 12.0073 89.0845C12.0122 89.1827 12.0146 89.281 12.0146 89.3793Z" fill="#EAEEF9"/>
<path d="M121.816 102.341H28.3262C24.0275 102.341 20.5352 98.8408 20.5352 94.5433V34.6436C20.5352 30.3461 24.0275 26.8457 28.3262 26.8457H121.816C126.113 26.8457 129.602 30.3461 129.602 34.6436V94.8205C129.337 98.8408 125.848 102.341 121.816 102.341Z" fill="white"/>
<path fill-rule="evenodd" clip-rule="evenodd" d="M127.93 100.915C129.66 99.2229 130.603 97.2169 130.756 94.8967L130.758 94.8586V34.6436C130.758 32.1756 129.885 30.0667 128.139 28.317C126.392 26.566 124.284 25.6904 121.817 25.6904H28.3271C25.859 25.6904 23.7507 26.5659 22.0022 28.3167C20.2546 30.0666 19.3809 32.1756 19.3809 34.6436V94.5433C19.3809 97.0113 20.2546 99.1203 22.0022 100.87C23.7507 102.621 25.859 103.496 28.3271 103.496H121.817C124.131 103.496 126.169 102.636 127.93 100.915ZM128.448 94.781V34.6436C128.448 32.8127 127.8 31.2478 126.504 29.9491C125.208 28.6503 123.645 28.0009 121.817 28.0009H28.3271C26.4977 28.0009 24.9343 28.6504 23.637 29.9494C22.3399 31.2483 21.6914 32.813 21.6914 34.6436V94.5433C21.6914 96.3739 22.3399 97.9386 23.637 99.2375C24.9343 100.536 26.4977 101.186 28.3271 101.186H121.817C123.503 101.186 125.003 100.545 126.315 99.2623C127.615 97.9916 128.326 96.4978 128.448 94.781Z" fill="#D6DCE8"/>
<path d="M54.5133 29.6067H36.7832V35.5596H54.5133V29.6067Z" fill="#F1F3F9"/>
<path d="M54.5133 29.6067H36.7832V35.5596H54.5133V29.6067Z" stroke="#D6DCE8" stroke-width="2"/>
<path d="M112.337 29.6067H95.0137V35.5596H112.337V29.6067Z" fill="#F1F3F9"/>
<path d="M112.337 29.6067H95.0137V35.5596H112.337V29.6067Z" stroke="#D6DCE8" stroke-width="2"/>
<path d="M51.4302 16.1018H39.8789V32.3562H51.4302V16.1018Z" fill="white"/>
<path fill-rule="evenodd" clip-rule="evenodd" d="M38.7246 33.5114V14.9466H52.5864V33.5114H38.7246ZM50.2759 17.2571H41.0351V31.2009H50.2759V17.2571Z" fill="#D6DCE8"/>
<path d="M109.465 16.1018H97.9121V32.3562H109.465V16.1018Z" fill="white"/>
<path fill-rule="evenodd" clip-rule="evenodd" d="M96.7578 33.5114V14.9466H110.621V33.5114H96.7578ZM108.31 17.2571H99.0683V31.2009H108.31V17.2571Z" fill="#D6DCE8"/>
<path fill-rule="evenodd" clip-rule="evenodd" d="M64.6816 63.4398C65.2677 62.0543 65.5607 60.604 65.5607 59.0887C65.5607 57.5736 65.2678 56.1228 64.6819 54.7365C64.1165 53.3985 63.3187 52.2139 62.2885 51.1827C61.2581 50.1513 60.0742 49.3524 58.7369 48.7862C57.3508 48.1993 55.9001 47.9059 54.3849 47.9059C52.8699 47.9059 51.4193 48.1993 50.0333 48.7862C48.696 49.3525 47.5121 50.1513 46.4817 51.1826C45.4515 52.2138 44.6536 53.3984 44.088 54.7364C43.502 56.1228 43.209 57.5735 43.209 59.0887C43.209 60.604 43.5021 62.0544 44.0883 63.4399C44.6541 64.7771 45.4524 65.9606 46.4832 66.9905C47.5136 68.0199 48.6976 68.8172 50.0351 69.3822C51.4204 69.9673 52.8704 70.2599 54.3849 70.2599C55.8996 70.2599 57.3497 69.9673 58.7351 69.3822C60.0727 68.8172 61.2567 68.0199 62.2871 66.9903C63.3178 65.9605 64.1159 64.777 64.6816 63.4398ZM59.0194 54.4486C60.2996 55.7301 60.9397 57.2768 60.9397 59.0887C60.9397 60.8989 60.3001 62.4432 59.0209 63.7214C57.7416 64.9998 56.1962 65.6389 54.3849 65.6389C52.5739 65.6389 51.0287 64.9998 49.7492 63.7214C48.4697 62.443 47.83 60.8988 47.83 59.0887C47.83 57.277 48.4702 55.7303 49.7507 54.4487C51.0308 53.1675 52.5755 52.5268 54.3849 52.5268C56.1946 52.5268 57.7394 53.1674 59.0194 54.4486Z" fill="#9FA8BA"/>
<path fill-rule="evenodd" clip-rule="evenodd" d="M65.3715 77.8585C66.0004 79.3301 66.3148 80.8637 66.3148 82.4593C66.3148 82.535 66.3185 82.6105 66.3259 82.6858C66.3333 82.7611 66.3444 82.8359 66.3591 82.9101C66.3739 82.9843 66.3923 83.0576 66.4142 83.1301C66.4362 83.2025 66.4616 83.2736 66.4906 83.3436C66.5196 83.4134 66.5519 83.4817 66.5876 83.5485C66.6233 83.6152 66.6622 83.68 66.7042 83.7429C66.7462 83.8059 66.7912 83.8666 66.8393 83.9251C66.8872 83.9836 66.938 84.0396 66.9915 84.0931C67.0451 84.1466 67.101 84.1974 67.1595 84.2453C67.218 84.2934 67.2788 84.3384 67.3417 84.3804C67.4046 84.4224 67.4694 84.4613 67.5361 84.497C67.6029 84.5327 67.6712 84.565 67.7411 84.594C67.811 84.623 67.8821 84.6484 67.9545 84.6704C68.027 84.6923 68.1003 84.7107 68.1745 84.7255C68.2487 84.7402 68.3235 84.7513 68.3988 84.7587C68.4741 84.7661 68.5496 84.7698 68.6253 84.7698C68.701 84.7698 68.7765 84.7661 68.8517 84.7587C68.927 84.7513 69.0018 84.7402 69.0761 84.7255C69.1502 84.7107 69.2235 84.6923 69.296 84.6704C69.3684 84.6484 69.4396 84.623 69.5095 84.594C69.5794 84.565 69.6477 84.5327 69.7144 84.497C69.7811 84.4613 69.846 84.4224 69.9089 84.3804C69.9718 84.3384 70.0325 84.2934 70.0911 84.2453C70.1495 84.1974 70.2055 84.1466 70.259 84.0931C70.3126 84.0396 70.3633 83.9836 70.4113 83.9251C70.4594 83.8666 70.5044 83.8059 70.5463 83.7429C70.5884 83.68 70.6272 83.6152 70.6629 83.5485C70.6986 83.4817 70.731 83.4134 70.7599 83.3436C70.7889 83.2736 70.8144 83.2025 70.8363 83.1301C70.8583 83.0576 70.8766 82.9843 70.8914 82.9101C70.9061 82.8359 70.9172 82.7611 70.9247 82.6858C70.9321 82.6105 70.9358 82.535 70.9358 82.4593C70.9358 80.233 70.4974 78.0941 69.6208 76.0427C68.7776 74.0697 67.5911 72.3185 66.0612 70.7891C64.5313 69.2597 62.7795 68.0735 60.8059 67.2307C58.7537 66.3543 56.614 65.9162 54.3868 65.9162C52.1599 65.9162 50.0204 66.3544 47.9683 67.2307C45.9947 68.0736 44.2429 69.2597 42.713 70.789C41.183 72.3184 39.9963 74.0696 39.1531 76.0426C38.2763 78.0941 37.8379 80.233 37.8379 82.4593C37.8379 82.535 37.8416 82.6105 37.849 82.6858C37.8564 82.7611 37.8675 82.8359 37.8823 82.9101C37.8971 82.9843 37.9154 83.0576 37.9374 83.1301C37.9593 83.2025 37.9848 83.2736 38.0138 83.3436C38.0427 83.4134 38.075 83.4817 38.1107 83.5485C38.1464 83.6152 38.1852 83.68 38.2273 83.7429C38.2693 83.8059 38.3143 83.8666 38.3623 83.9251C38.4104 83.9836 38.4611 84.0396 38.5146 84.0931C38.5681 84.1466 38.6241 84.1974 38.6826 84.2453C38.7411 84.2934 38.8018 84.3384 38.8647 84.3804C38.9277 84.4224 38.9925 84.4613 39.0592 84.497C39.126 84.5327 39.1943 84.565 39.2642 84.594C39.3341 84.623 39.4053 84.6484 39.4777 84.6704C39.5501 84.6923 39.6234 84.7107 39.6976 84.7255C39.7718 84.7402 39.8466 84.7513 39.9219 84.7587C39.9972 84.7661 40.0727 84.7698 40.1484 84.7698C40.3001 84.7698 40.4504 84.755 40.5991 84.7255C40.7479 84.6958 40.8924 84.652 41.0326 84.594C41.1727 84.5359 41.3059 84.4647 41.432 84.3804C41.5582 84.2961 41.6749 84.2004 41.7822 84.0931C41.8894 83.9858 41.9852 83.8691 42.0695 83.7429C42.1538 83.6169 42.225 83.4837 42.283 83.3436C42.3411 83.2034 42.3849 83.0589 42.4145 82.9101C42.4441 82.7613 42.4589 82.6111 42.4589 82.4593C42.4589 80.8638 42.7734 79.3302 43.4023 77.8586C44.0116 76.433 44.8708 75.1658 45.9799 74.0572C47.089 72.9485 48.3568 72.0896 49.7832 71.4804C51.2556 70.8516 52.7902 70.5372 54.3868 70.5372C55.9838 70.5372 57.5185 70.8516 58.991 71.4804C60.4174 72.0896 61.6851 72.9485 62.7942 74.0572C63.9031 75.1657 64.7622 76.4329 65.3715 77.8585Z" fill="#9FA8BA"/>
<path fill-rule="evenodd" clip-rule="evenodd" d="M112.149 59.7818H83.4003C83.3247 59.7818 83.2492 59.7781 83.1739 59.7707C83.0986 59.7633 83.0238 59.7522 82.9496 59.7374C82.8754 59.7226 82.8021 59.7043 82.7296 59.6823C82.6572 59.6603 82.5861 59.6349 82.5162 59.6059C82.4462 59.577 82.3779 59.5446 82.3112 59.509C82.2444 59.4733 82.1796 59.4344 82.1167 59.3924C82.0538 59.3504 81.9931 59.3053 81.9346 59.2573C81.8761 59.2093 81.8201 59.1586 81.7666 59.1051C81.7131 59.0516 81.6623 58.9956 81.6143 58.9371C81.5663 58.8786 81.5213 58.8179 81.4792 58.7549C81.4372 58.692 81.3983 58.6272 81.3627 58.5605C81.327 58.4937 81.2947 58.4254 81.2657 58.3555C81.2368 58.2856 81.2113 58.2144 81.1893 58.142C81.1674 58.0696 81.149 57.9963 81.1342 57.9221C81.1195 57.8478 81.1084 57.7731 81.101 57.6978C81.0936 57.6225 81.0898 57.547 81.0898 57.4713C81.0898 57.3956 81.0936 57.3201 81.101 57.2448C81.1084 57.1695 81.1195 57.0948 81.1342 57.0205C81.149 56.9463 81.1674 56.873 81.1893 56.8006C81.2113 56.7282 81.2368 56.657 81.2657 56.5871C81.2947 56.5172 81.327 56.4489 81.3627 56.3821C81.3983 56.3154 81.4372 56.2506 81.4792 56.1877C81.5213 56.1247 81.5663 56.064 81.6143 56.0055C81.6623 55.947 81.7131 55.891 81.7666 55.8375C81.8201 55.784 81.8761 55.7333 81.9346 55.6853C81.9931 55.6373 82.0538 55.5922 82.1167 55.5502C82.1796 55.5081 82.2444 55.4693 82.3112 55.4336C82.3779 55.3979 82.4462 55.3656 82.5162 55.3367C82.5861 55.3077 82.6572 55.2823 82.7296 55.2603C82.8021 55.2383 82.8754 55.22 82.9496 55.2052C83.0238 55.1904 83.0986 55.1793 83.1739 55.1719C83.2492 55.1645 83.3247 55.1608 83.4003 55.1608H112.149C112.224 55.1608 112.3 55.1645 112.375 55.1719C112.45 55.1793 112.525 55.1904 112.599 55.2052C112.674 55.22 112.747 55.2383 112.819 55.2603C112.892 55.2823 112.963 55.3077 113.033 55.3367C113.103 55.3656 113.171 55.3979 113.238 55.4336C113.305 55.4693 113.369 55.5081 113.432 55.5502C113.495 55.5922 113.556 55.6373 113.614 55.6853C113.673 55.7333 113.729 55.784 113.782 55.8375C113.836 55.891 113.887 55.947 113.935 56.0055C113.983 56.064 114.028 56.1247 114.07 56.1877C114.112 56.2506 114.151 56.3154 114.186 56.3821C114.222 56.4489 114.254 56.5172 114.283 56.5871C114.312 56.657 114.338 56.7282 114.36 56.8006C114.382 56.873 114.4 56.9463 114.415 57.0205C114.43 57.0948 114.441 57.1695 114.448 57.2448C114.456 57.3201 114.459 57.3956 114.459 57.4713C114.459 57.547 114.456 57.6225 114.448 57.6978C114.441 57.7731 114.43 57.8478 114.415 57.9221C114.4 57.9963 114.382 58.0696 114.36 58.142C114.338 58.2144 114.312 58.2856 114.283 58.3555C114.254 58.4254 114.222 58.4937 114.186 58.5605C114.151 58.6272 114.112 58.692 114.07 58.7549C114.028 58.8179 113.983 58.8786 113.935 58.9371C113.887 58.9956 113.836 59.0516 113.782 59.1051C113.729 59.1586 113.673 59.2093 113.614 59.2573C113.556 59.3053 113.495 59.3504 113.432 59.3924C113.369 59.4344 113.305 59.4733 113.238 59.509C113.171 59.5446 113.103 59.577 113.033 59.6059C112.963 59.6349 112.892 59.6603 112.819 59.6823C112.747 59.7043 112.674 59.7226 112.599 59.7374C112.525 59.7522 112.45 59.7633 112.375 59.7707C112.3 59.7781 112.224 59.7818 112.149 59.7818Z" fill="#9FA8BA"/>
<path fill-rule="evenodd" clip-rule="evenodd" d="M94.6813 74.2917H83.4003C83.3247 74.2917 83.2492 74.288 83.1739 74.2806C83.0986 74.2732 83.0238 74.2621 82.9496 74.2473C82.8754 74.2326 82.8021 74.2142 82.7296 74.1922C82.6572 74.1703 82.5861 74.1448 82.5162 74.1158C82.4462 74.0869 82.3779 74.0546 82.3112 74.0189C82.2444 73.9832 82.1796 73.9444 82.1167 73.9023C82.0538 73.8603 81.9931 73.8153 81.9346 73.7673C81.8761 73.7192 81.8201 73.6685 81.7666 73.615C81.7131 73.5615 81.6623 73.5055 81.6143 73.447C81.5663 73.3885 81.5213 73.3278 81.4792 73.2649C81.4372 73.2019 81.3983 73.1371 81.3627 73.0704C81.327 73.0036 81.2947 72.9353 81.2657 72.8654C81.2368 72.7955 81.2113 72.7243 81.1893 72.6519C81.1674 72.5795 81.149 72.5062 81.1342 72.432C81.1195 72.3578 81.1084 72.283 81.101 72.2077C81.0936 72.1324 81.0898 72.0569 81.0898 71.9812C81.0898 71.9055 81.0936 71.8301 81.101 71.7547C81.1084 71.6794 81.1195 71.6047 81.1342 71.5305C81.149 71.4562 81.1674 71.3829 81.1893 71.3105C81.2113 71.2381 81.2368 71.1669 81.2657 71.097C81.2947 71.0271 81.327 70.9588 81.3627 70.8921C81.3983 70.8253 81.4372 70.7605 81.4792 70.6976C81.5213 70.6346 81.5663 70.5739 81.6143 70.5154C81.6623 70.457 81.7131 70.401 81.7666 70.3474C81.8201 70.2939 81.8761 70.2432 81.9346 70.1952C81.9931 70.1472 82.0538 70.1021 82.1167 70.0601C82.1796 70.0181 82.2444 69.9792 82.3112 69.9435C82.3779 69.9079 82.4462 69.8755 82.5162 69.8466C82.5861 69.8176 82.6572 69.7922 82.7296 69.7702C82.8021 69.7482 82.8754 69.7299 82.9496 69.7151C83.0238 69.7003 83.0986 69.6893 83.1739 69.6818C83.2492 69.6744 83.3247 69.6707 83.4003 69.6707H94.6813C94.757 69.6707 94.8325 69.6744 94.9078 69.6818C94.9831 69.6893 95.0579 69.7003 95.1321 69.7151C95.2063 69.7299 95.2796 69.7482 95.3521 69.7702C95.4245 69.7922 95.4956 69.8176 95.5656 69.8466C95.6354 69.8755 95.7037 69.9079 95.7705 69.9435C95.8372 69.9792 95.902 70.0181 95.9649 70.0601C96.0279 70.1021 96.0886 70.1472 96.1471 70.1952C96.2056 70.2432 96.2616 70.2939 96.3151 70.3474C96.3686 70.401 96.4194 70.457 96.4674 70.5154C96.5154 70.5739 96.5604 70.6346 96.6024 70.6976C96.6445 70.7605 96.6833 70.8253 96.719 70.8921C96.7547 70.9588 96.7871 71.0271 96.816 71.097C96.845 71.1669 96.8704 71.2381 96.8924 71.3105C96.9143 71.3829 96.9327 71.4562 96.9475 71.5305C96.9622 71.6047 96.9733 71.6794 96.9808 71.7547C96.9882 71.8301 96.9918 71.9055 96.9918 71.9812C96.9918 72.0569 96.9882 72.1324 96.9808 72.2077C96.9733 72.283 96.9622 72.3578 96.9475 72.432C96.9327 72.5062 96.9143 72.5795 96.8924 72.6519C96.8704 72.7243 96.845 72.7955 96.816 72.8654C96.7871 72.9353 96.7547 73.0036 96.719 73.0704C96.6833 73.1371 96.6445 73.2019 96.6024 73.2649C96.5604 73.3278 96.5154 73.3885 96.4674 73.447C96.4194 73.5055 96.3686 73.5615 96.3151 73.615C96.2616 73.6685 96.2056 73.7192 96.1471 73.7673C96.0886 73.8153 96.0279 73.8603 95.9649 73.9023C95.902 73.9444 95.8372 73.9832 95.7705 74.0189C95.7037 74.0546 95.6354 74.0869 95.5656 74.1158C95.4956 74.1448 95.4245 74.1703 95.3521 74.1922C95.2796 74.2142 95.2063 74.2326 95.1321 74.2473C95.0579 74.2621 94.9831 74.2732 94.9078 74.2806C94.8325 74.288 94.757 74.2917 94.6813 74.2917Z" fill="#9FA8BA"/>
<path d="M92.8951 113.663C92.5231 115.245 91.9639 116.92 91.3124 118.318C89.5425 121.761 86.748 124.464 83.3019 126.232C79.7622 128.011 75.5698 128.75 71.3786 127.814C61.5058 125.77 55.1716 116.077 57.221 106.211C59.2693 96.3339 68.8636 89.9107 78.7375 92.0479C82.2772 92.7988 85.3501 94.5664 87.9587 96.9924C92.3371 101.371 94.2051 107.702 92.8951 113.663Z" fill="#D6DCE8"/>
<path fill-rule="evenodd" clip-rule="evenodd" d="M92.3597 118.806C93.0501 117.325 93.6035 115.699 94.0199 113.927L94.0236 113.911C94.7215 110.735 94.603 107.567 93.6681 104.406C92.7331 101.246 91.1023 98.502 88.7758 96.1755L88.761 96.1607L88.7457 96.1464C85.8146 93.4204 82.56 91.6778 78.9821 90.9188C76.4046 90.3609 73.8357 90.3336 71.2755 90.8367C68.8094 91.3214 66.52 92.2627 64.4073 93.6607C62.3017 95.0541 60.5345 96.793 59.1058 98.8776C57.6303 101.031 56.625 103.397 56.0901 105.976C55.555 108.552 55.5407 111.122 56.047 113.685C56.5361 116.161 57.4747 118.459 58.8627 120.579C60.2515 122.7 61.9825 124.478 64.0557 125.913C66.2042 127.401 68.5613 128.411 71.127 128.942C73.2991 129.427 75.5067 129.508 77.7496 129.185C79.8525 128.882 81.879 128.24 83.8293 127.26C87.6189 125.316 90.4558 122.512 92.3401 118.846L92.3502 118.827L92.3597 118.806ZM91.4525 105.062C92.2742 107.839 92.3796 110.621 91.7688 113.407C91.3908 115.013 90.8928 116.48 90.2749 117.81C88.6171 121.025 86.1171 123.49 82.7749 125.204C79.1276 127.037 75.4128 127.531 71.6305 126.687C69.3483 126.214 67.2619 125.323 65.3711 124.014C63.5449 122.749 62.0198 121.182 60.7957 119.313C59.572 117.444 58.7447 115.419 58.3137 113.237C57.8678 110.98 57.8807 108.717 58.3523 106.446C58.8245 104.169 59.711 102.082 61.0117 100.184C62.2705 98.3471 63.8274 96.815 65.6824 95.5876C67.541 94.3577 69.5539 93.5298 71.7211 93.1039C73.9692 92.662 76.2267 92.6864 78.4934 93.177C81.6541 93.8476 84.5419 95.3965 87.1568 97.824C89.1986 99.8705 90.6305 102.283 91.4525 105.062Z" fill="#AAB2C5"/>
<path d="M80.294 107.355H77.6831V104.744C77.6831 103.404 76.6238 102.168 75.1046 102.168C73.7588 102.168 72.5273 103.231 72.5273 104.744V107.355H69.9153C68.5694 107.355 67.3379 108.418 67.3379 109.931C67.3379 110.624 67.5863 111.294 68.0738 111.78C68.5613 112.265 69.2209 112.507 69.9153 112.507H72.5273V115.118C72.5273 116.47 73.5855 117.706 75.1046 117.706C76.4516 117.706 77.6831 116.643 77.6831 115.118V112.507H80.294C81.641 112.507 82.8725 111.456 82.8725 109.931C82.8725 108.418 81.641 107.355 80.294 107.355Z" fill="white"/>
<path fill-rule="evenodd" clip-rule="evenodd" d="M82.886 112.628C83.6478 111.902 84.0287 111.004 84.0287 109.931C84.0287 108.864 83.6482 107.967 82.8872 107.24C82.161 106.547 81.2969 106.2 80.295 106.2H78.8393V104.744C78.8393 103.745 78.493 102.882 77.8003 102.156C77.073 101.394 76.1747 101.013 75.1056 101.013C74.104 101.013 73.2402 101.36 72.5142 102.053C71.7534 102.78 71.373 103.677 71.373 104.744V106.2H69.9162C68.9146 106.2 68.0508 106.547 67.3248 107.24C66.564 107.967 66.1836 108.864 66.1836 109.931C66.1836 110.995 66.5423 111.884 67.2598 112.598C67.9727 113.308 68.8581 113.663 69.9162 113.663H71.373V115.118C71.373 116.122 71.7186 116.988 72.41 117.715C73.1365 118.479 74.0351 118.861 75.1056 118.861C76.1089 118.861 76.9734 118.514 77.6992 117.818C78.4593 117.09 78.8393 116.19 78.8393 115.118V113.663H80.295C81.2977 113.663 82.1614 113.318 82.886 112.628ZM81.2915 108.911C81.576 109.183 81.7182 109.523 81.7182 109.931C81.7182 110.343 81.5764 110.684 81.2927 110.954C81.0143 111.22 80.6817 111.352 80.295 111.352H76.5289V115.118C76.5289 115.533 76.3861 115.876 76.1007 116.15C75.8218 116.417 75.49 116.551 75.1056 116.551C74.696 116.551 74.3556 116.408 74.0845 116.123C73.8171 115.842 73.6835 115.507 73.6835 115.118V111.352H69.9162C69.494 111.352 69.1518 111.222 68.8897 110.961C68.626 110.698 68.4941 110.355 68.4941 109.931C68.4941 109.523 68.6364 109.183 68.9209 108.911C69.2004 108.644 69.5322 108.51 69.9162 108.51H73.6835V104.744C73.6835 104.336 73.8257 103.996 74.1103 103.724C74.3898 103.457 74.7216 103.323 75.1056 103.323C75.5155 103.323 75.8566 103.466 76.1287 103.751C76.3955 104.031 76.5289 104.362 76.5289 104.744V108.51H80.295C80.6796 108.51 81.0118 108.644 81.2915 108.911Z" fill="#AAB2C5"/>
</svg>
