<svg width="140" height="134" viewBox="0 0 140 134" fill="none" xmlns="http://www.w3.org/2000/svg">
<path d="M135.131 76.1734C135.131 91.8882 128.712 106.054 118.42 116.235C108.349 126.306 94.405 132.393 79.0167 132.393C63.7445 132.393 49.8004 126.195 39.619 116.235C29.3269 106.054 22.9082 91.8882 22.9082 76.1734C22.9082 45.0758 48.0297 19.9543 79.0167 19.9543C110.009 19.9543 135.131 45.1865 135.131 76.1734Z" fill="#F1F3F9"/>
<path fill-rule="evenodd" clip-rule="evenodd" d="M131.652 98.7134C134.708 91.5477 136.237 84.0344 136.237 76.1734C136.237 68.4132 134.738 60.9841 131.74 53.8859C128.844 47.029 124.757 40.9545 119.479 35.6622C114.198 30.3675 108.135 26.2675 101.291 23.3623C94.2005 20.3525 86.7754 18.8476 79.0159 18.8476C71.2548 18.8476 63.8312 20.3471 56.7451 23.3462C49.8984 26.244 43.8362 30.3353 38.5585 35.6203C33.2791 40.9068 29.192 46.9799 26.2973 53.8396C23.2996 60.9431 21.8008 68.3877 21.8008 76.1734C21.8008 84.0343 23.329 91.5477 26.3854 98.7134C29.3308 105.619 33.4838 111.723 38.8444 117.026C44.1411 122.208 50.1865 126.222 56.9803 129.069C64.0268 132.023 71.372 133.499 79.0159 133.499C86.7488 133.499 94.1226 132.037 101.137 129.112C107.964 126.265 113.984 122.235 119.197 117.022C124.555 111.722 128.706 105.619 131.652 98.7134ZM129.701 54.7472C132.582 61.57 134.023 68.712 134.023 76.1734C134.023 83.7329 132.554 90.9568 129.616 97.8451C126.784 104.484 122.792 110.352 117.641 115.448C112.628 120.461 106.843 124.335 100.286 127.069C93.5433 129.88 86.4534 131.286 79.0159 131.286C71.6688 131.286 64.6087 129.867 57.8358 127.028C51.302 124.29 45.4874 120.429 40.3922 115.444C35.2434 110.35 31.2531 104.484 28.4213 97.8451C25.4832 90.9567 24.0141 83.7328 24.0141 76.1734C24.0141 68.6863 25.4549 61.5285 28.3365 54.7001C31.1193 48.1057 35.0487 42.2671 40.1247 37.1842C45.1988 32.1032 51.0265 28.17 57.6077 25.3846C64.4181 22.5021 71.5542 21.0609 79.0159 21.0609C86.4753 21.0609 93.612 22.5072 100.426 25.3997C107.006 28.1925 112.834 32.1343 117.911 37.2253C122.987 42.3142 126.917 48.1548 129.701 54.7472Z" fill="#D6DCE8"/>
<path d="M71.2387 25.7212L67.0765 40.4012L77.0388 47.3058L76.3383 64.1737L88.9135 41.0951L83.0724 36.4283L89.7523 25.7212H97.2511L119.938 50.4001L120.823 121.67C120.823 124.105 118.831 125.986 116.397 125.986H46.8974C44.4627 125.986 42.4707 123.994 42.4707 121.67V30.0372C42.4707 27.6025 44.4627 25.7212 46.8974 25.7212H71.2387Z" fill="white"/>
<path fill-rule="evenodd" clip-rule="evenodd" d="M120.291 125.537C121.383 124.483 121.929 123.193 121.929 121.67L121.929 121.656L121.044 50.3863L120.752 49.651L98.0651 24.9722L97.2504 24.6145H89.7516L88.8127 25.1354L82.1328 35.8425L82.3809 37.2929L87.4969 41.3804L77.6406 59.4695L78.1438 47.3517L77.6684 46.3962L68.3562 39.9422L72.3027 26.0231L71.238 24.6145H46.8967C45.374 24.6145 44.0757 25.133 43.0016 26.17C41.9094 27.2246 41.3633 28.5137 41.3633 30.0372V121.67C41.3633 123.147 41.9071 124.42 42.9946 125.489C44.0826 126.558 45.3833 127.093 46.8967 127.093H116.396C117.919 127.093 119.217 126.574 120.291 125.537ZM119.716 121.67L118.836 50.8373L96.7645 26.8279H90.3656L84.5319 36.1784L89.6035 40.2305L89.8845 41.6247L77.3093 64.7033L75.2319 64.1278L75.9071 47.8684L66.4454 41.3108L66.0111 40.0993L69.774 26.8279H46.8967C45.9701 26.8279 45.1842 27.1393 44.539 27.7623C43.8974 28.3818 43.5766 29.1401 43.5766 30.0372V121.67C43.5766 122.528 43.8998 123.275 44.546 123.91C45.2034 124.556 45.987 124.879 46.8967 124.879H116.396C117.322 124.879 118.108 124.568 118.754 123.945C119.394 123.327 119.714 122.571 119.716 121.676L119.716 121.67Z" fill="#D6DCE8"/>
<path d="M130.262 39.3211C132.763 39.3211 134.799 37.2892 134.799 34.7837C134.799 32.2771 132.763 30.2463 130.262 30.2463C127.75 30.2463 125.725 32.2771 125.725 34.7837C125.725 37.2892 127.75 39.3211 130.262 39.3211Z" fill="#F1F3F9"/>
<path d="M136.899 21.6143C138.604 21.6143 139.998 20.2265 139.998 18.5156C139.998 16.8036 138.604 15.4169 136.899 15.4169C135.184 15.4169 133.801 16.8036 133.801 18.5156C133.801 20.2265 135.184 21.6143 136.899 21.6143Z" fill="#F1F3F9"/>
<path d="M27.7775 36.1117C27.7775 36.2132 27.7725 36.3145 27.7625 36.4155C27.7526 36.5164 27.7377 36.6167 27.7179 36.7162C27.6981 36.8158 27.6735 36.9141 27.644 37.0112C27.6146 37.1083 27.5804 37.2038 27.5416 37.2975C27.5027 37.3913 27.4594 37.4829 27.4116 37.5724C27.3637 37.6619 27.3116 37.7489 27.2552 37.8333C27.1989 37.9176 27.1385 37.9991 27.0741 38.0775C27.0097 38.156 26.9416 38.2311 26.8699 38.3028C26.7981 38.3746 26.723 38.4427 26.6446 38.507C26.5661 38.5714 26.4847 38.6318 26.4003 38.6882C26.3159 38.7446 26.229 38.7967 26.1395 38.8445C26.05 38.8924 25.9583 38.9357 25.8646 38.9745C25.7708 39.0134 25.6754 39.0475 25.5783 39.077C25.4812 39.1064 25.3828 39.1311 25.2833 39.1509C25.1838 39.1707 25.0835 39.1855 24.9825 39.1955C24.8815 39.2054 24.7803 39.2104 24.6788 39.2104C24.5773 39.2104 24.476 39.2054 24.375 39.1955C24.274 39.1855 24.1738 39.1707 24.0742 39.1509C23.9747 39.1311 23.8764 39.1064 23.7793 39.077C23.6821 39.0475 23.5867 39.0134 23.493 38.9745C23.3992 38.9357 23.3076 38.8924 23.2181 38.8445C23.1286 38.7967 23.0416 38.7446 22.9572 38.6882C22.8728 38.6318 22.7914 38.5714 22.713 38.507C22.6345 38.4427 22.5594 38.3746 22.4877 38.3028C22.4159 38.2311 22.3478 38.156 22.2834 38.0775C22.2191 37.9991 22.1587 37.9176 22.1023 37.8333C22.0459 37.7489 21.9938 37.6619 21.946 37.5724C21.8981 37.4829 21.8548 37.3913 21.816 37.2975C21.7771 37.2038 21.743 37.1083 21.7135 37.0112C21.684 36.9141 21.6594 36.8158 21.6396 36.7162C21.6198 36.6167 21.6049 36.5164 21.595 36.4155C21.5851 36.3145 21.5801 36.2132 21.5801 36.1117C21.5801 36.0102 21.5851 35.909 21.595 35.808C21.6049 35.707 21.6198 35.6067 21.6396 35.5072C21.6594 35.4077 21.684 35.3093 21.7135 35.2122C21.743 35.1151 21.7771 35.0197 21.816 34.9259C21.8548 34.8321 21.8981 34.7405 21.946 34.651C21.9938 34.5615 22.0459 34.4746 22.1023 34.3902C22.1587 34.3058 22.2191 34.2244 22.2834 34.1459C22.3478 34.0675 22.4159 33.9924 22.4877 33.9206C22.5594 33.8489 22.6345 33.7808 22.713 33.7164C22.7914 33.652 22.8728 33.5916 22.9572 33.5353C23.0416 33.4789 23.1286 33.4268 23.2181 33.3789C23.3076 33.3311 23.3992 33.2877 23.493 33.2489C23.5867 33.2101 23.6821 33.1759 23.7793 33.1465C23.8764 33.117 23.9747 33.0924 24.0742 33.0726C24.1738 33.0528 24.274 33.0379 24.375 33.028C24.476 33.018 24.5773 33.013 24.6788 33.013C24.7803 33.013 24.8815 33.018 24.9825 33.028C25.0835 33.0379 25.1838 33.0528 25.2833 33.0726C25.3828 33.0924 25.4812 33.117 25.5783 33.1465C25.6754 33.1759 25.7708 33.2101 25.8646 33.2489C25.9583 33.2877 26.05 33.3311 26.1395 33.3789C26.229 33.4268 26.3159 33.4789 26.4003 33.5353C26.4847 33.5916 26.5661 33.652 26.6446 33.7164C26.723 33.7808 26.7981 33.8489 26.8699 33.9206C26.9416 33.9924 27.0097 34.0675 27.0741 34.1459C27.1385 34.2244 27.1989 34.3058 27.2552 34.3902C27.3116 34.4746 27.3637 34.5615 27.4116 34.651C27.4594 34.7405 27.5027 34.8321 27.5416 34.9259C27.5804 35.0197 27.6146 35.1151 27.644 35.2122C27.6735 35.3093 27.6981 35.4077 27.7179 35.5072C27.7377 35.6067 27.7526 35.707 27.7625 35.808C27.7725 35.909 27.7775 36.0102 27.7775 36.1117Z" fill="#F1F3F9"/>
<path d="M11.5094 93.2162C11.5094 93.3104 11.5071 93.4045 11.5025 93.4986C11.4979 93.5926 11.491 93.6865 11.4818 93.7803C11.4725 93.874 11.4609 93.9674 11.4471 94.0606C11.4333 94.1538 11.4172 94.2465 11.3989 94.3389C11.3805 94.4313 11.3599 94.5231 11.337 94.6145C11.3141 94.7058 11.2889 94.7966 11.2616 94.8867C11.2343 94.9768 11.2047 95.0662 11.173 95.1549C11.1413 95.2436 11.1074 95.3314 11.0714 95.4184C11.0353 95.5054 10.9972 95.5915 10.9569 95.6767C10.9166 95.7618 10.8743 95.8459 10.8299 95.929C10.7855 96.012 10.7391 96.0939 10.6907 96.1747C10.6423 96.2555 10.5919 96.335 10.5396 96.4133C10.4873 96.4916 10.433 96.5686 10.3769 96.6443C10.3208 96.7199 10.2629 96.7941 10.2032 96.8669C10.1434 96.9398 10.0819 97.011 10.0187 97.0808C9.95543 97.1506 9.8905 97.2188 9.8239 97.2854C9.75731 97.352 9.68913 97.4169 9.61935 97.4802C9.54956 97.5434 9.47826 97.6049 9.40546 97.6646C9.33266 97.7244 9.25844 97.7823 9.18279 97.8384C9.10714 97.8945 9.03016 97.9487 8.95185 98.0011C8.87355 98.0534 8.794 98.1038 8.71322 98.1522C8.63244 98.2006 8.55052 98.247 8.46746 98.2914C8.3844 98.3358 8.30031 98.3781 8.21517 98.4184C8.13003 98.4587 8.04396 98.4968 7.95694 98.5329C7.86994 98.5689 7.78209 98.6028 7.69342 98.6345C7.60474 98.6662 7.51534 98.6958 7.42522 98.7231C7.33509 98.7504 7.24435 98.7756 7.153 98.7985C7.06164 98.8214 6.96977 98.842 6.8774 98.8604C6.78503 98.8787 6.69227 98.8948 6.59911 98.9086C6.50595 98.9224 6.4125 98.934 6.31877 98.9432C6.22505 98.9525 6.13115 98.9594 6.03708 98.9639C5.94301 98.9686 5.84889 98.9709 5.75471 98.9709C5.66053 98.9709 5.56641 98.9686 5.47234 98.9639C5.37828 98.9594 5.28438 98.9525 5.19065 98.9432C5.09692 98.934 5.00348 98.9224 4.91032 98.9086C4.81716 98.8948 4.72439 98.8787 4.63202 98.8604C4.53965 98.842 4.44779 98.8214 4.35643 98.7985C4.26508 98.7756 4.17434 98.7504 4.08421 98.7231C3.99408 98.6958 3.90468 98.6662 3.81601 98.6345C3.72733 98.6028 3.63949 98.5689 3.55248 98.5329C3.46547 98.4968 3.37939 98.4587 3.29425 98.4184C3.20912 98.3781 3.12502 98.3358 3.04196 98.2914C2.9589 98.247 2.87698 98.2006 2.7962 98.1522C2.71542 98.1038 2.63587 98.0534 2.55756 98.0011C2.47926 97.9487 2.40228 97.8945 2.32663 97.8384C2.25099 97.7823 2.17676 97.7244 2.10396 97.6646C2.03116 97.6049 1.95987 97.5434 1.89008 97.4802C1.8203 97.4169 1.75211 97.352 1.68551 97.2854C1.61892 97.2188 1.554 97.1506 1.49075 97.0808C1.4275 97.011 1.36601 96.9398 1.30626 96.8669C1.24651 96.7941 1.18858 96.7199 1.13248 96.6443C1.07638 96.5686 1.02217 96.4916 0.969844 96.4133C0.91752 96.335 0.867149 96.2555 0.818731 96.1747C0.770312 96.0939 0.723905 96.012 0.679509 95.929C0.635113 95.8459 0.592781 95.7618 0.552514 95.6767C0.512247 95.5915 0.474092 95.5054 0.438051 95.4184C0.40201 95.3314 0.368126 95.2436 0.336397 95.1549C0.304669 95.0662 0.275135 94.9768 0.247796 94.8867C0.220457 94.7966 0.195346 94.7058 0.172461 94.6145C0.149577 94.5231 0.128949 94.4313 0.110575 94.3389C0.0922015 94.2465 0.0761052 94.1538 0.062286 94.0606C0.048467 93.9674 0.0369418 93.874 0.0277105 93.7803C0.0184793 93.6865 0.011553 93.5926 0.00693181 93.4986C0.0023106 93.4045 0 93.3104 0 93.2162C0 93.122 0.0023106 93.0279 0.00693181 92.9338C0.011553 92.8398 0.0184793 92.7459 0.0277105 92.6521C0.0369418 92.5584 0.048467 92.465 0.062286 92.3718C0.0761052 92.2786 0.0922015 92.1859 0.110575 92.0935C0.128949 92.0011 0.149577 91.9093 0.172461 91.8179C0.195346 91.7266 0.220457 91.6358 0.247796 91.5457C0.275135 91.4556 0.304669 91.3662 0.336397 91.2775C0.368126 91.1888 0.40201 91.101 0.438051 91.014C0.474092 90.927 0.512247 90.8409 0.552514 90.7557C0.592781 90.6706 0.635113 90.5865 0.679509 90.5035C0.723905 90.4204 0.770312 90.3385 0.818731 90.2577C0.867149 90.1769 0.91752 90.0974 0.969844 90.019C1.02217 89.9407 1.07638 89.8638 1.13248 89.7881C1.18858 89.7125 1.24651 89.6383 1.30626 89.5654C1.36601 89.4927 1.4275 89.4214 1.49075 89.3516C1.554 89.2818 1.61892 89.2136 1.68551 89.147C1.75211 89.0804 1.8203 89.0155 1.89008 88.9522C1.95987 88.889 2.03116 88.8275 2.10396 88.7678C2.17676 88.708 2.25099 88.6501 2.32663 88.594C2.40228 88.5379 2.47926 88.4837 2.55756 88.4313C2.63587 88.379 2.71542 88.3286 2.7962 88.2802C2.87698 88.2318 2.9589 88.1854 3.04196 88.141C3.12502 88.0966 3.20912 88.0543 3.29425 88.014C3.37939 87.9737 3.46547 87.9356 3.55248 87.8995C3.63949 87.8635 3.72733 87.8296 3.81601 87.7979C3.90468 87.7662 3.99408 87.7366 4.08421 87.7093C4.17434 87.6819 4.26508 87.6568 4.35643 87.6339C4.44779 87.6111 4.53965 87.5904 4.63202 87.5721C4.72439 87.5537 4.81716 87.5376 4.91032 87.5238C5.00348 87.51 5.09692 87.4984 5.19065 87.4892C5.28438 87.48 5.37828 87.473 5.47234 87.4684C5.56641 87.4638 5.66053 87.4615 5.75471 87.4615C5.84889 87.4615 5.94301 87.4638 6.03708 87.4684C6.13115 87.473 6.22505 87.48 6.31877 87.4892C6.4125 87.4984 6.50595 87.51 6.59911 87.5238C6.69227 87.5376 6.78503 87.5537 6.8774 87.5721C6.96977 87.5904 7.06164 87.6111 7.153 87.6339C7.24435 87.6568 7.33509 87.6819 7.42522 87.7093C7.51534 87.7366 7.60474 87.7662 7.69342 87.7979C7.78209 87.8296 7.86994 87.8635 7.95694 87.8995C8.04396 87.9356 8.13003 87.9737 8.21517 88.014C8.30031 88.0543 8.3844 88.0966 8.46746 88.141C8.55052 88.1854 8.63244 88.2318 8.71322 88.2802C8.794 88.3286 8.87355 88.379 8.95185 88.4313C9.03016 88.4837 9.10714 88.5379 9.18279 88.594C9.25844 88.6501 9.33266 88.708 9.40546 88.7678C9.47826 88.8275 9.54956 88.889 9.61935 88.9522C9.68913 89.0155 9.75731 89.0804 9.8239 89.147C9.8905 89.2136 9.95543 89.2818 10.0187 89.3516C10.0819 89.4214 10.1434 89.4927 10.2032 89.5654C10.2629 89.6383 10.3208 89.7125 10.3769 89.7881C10.433 89.8638 10.4873 89.9407 10.5396 90.019C10.5919 90.0974 10.6423 90.1769 10.6907 90.2577C10.7391 90.3385 10.7855 90.4204 10.8299 90.5035C10.8743 90.5865 10.9166 90.6706 10.9569 90.7557C10.9972 90.8409 11.0353 90.927 11.0714 91.014C11.1074 91.101 11.1413 91.1888 11.173 91.2775C11.2047 91.3662 11.2343 91.4556 11.2616 91.5457C11.2889 91.6358 11.3141 91.7266 11.337 91.8179C11.3599 91.9093 11.3805 92.0011 11.3989 92.0935C11.4172 92.1859 11.4333 92.2786 11.4471 92.3718C11.4609 92.465 11.4725 92.5584 11.4818 92.6521C11.491 92.7459 11.4979 92.8398 11.5025 92.9338C11.5071 93.0279 11.5094 93.122 11.5094 93.2162Z" fill="#F1F3F9"/>
<path d="M66.6556 40.6613H53.2648C52.4902 40.6613 51.8262 39.9973 51.8262 39.2226C51.8262 38.4479 52.4902 37.7839 53.2648 37.7839H66.6556C67.4303 37.7839 68.0943 38.4479 68.0943 39.2226C68.0943 39.9973 67.4303 40.6613 66.6556 40.6613Z" fill="#D6DCE8"/>
<path d="M66.1023 48.6294H53.2648C52.4902 48.6294 51.8262 47.9654 51.8262 47.1907C51.8262 46.416 52.4902 45.752 53.2648 45.752H65.9916C66.7663 45.752 67.4303 46.416 67.4303 47.1907C67.4303 47.9654 66.7663 48.6294 66.1023 48.6294Z" fill="#D6DCE8"/>
<path d="M96.3086 25.7212V45.42C96.3086 48.1867 98.7433 50.4 101.51 50.4H118.995" fill="#D6DCE8"/>
<path fill-rule="evenodd" clip-rule="evenodd" d="M66.5613 19.7542L62.377 13.4539L64.2207 12.2294L68.4051 18.5297L66.5613 19.7542Z" fill="#A2ABBE"/>
<path fill-rule="evenodd" clip-rule="evenodd" d="M80.2458 0.0682456L79.7533 16.0253L77.541 15.9572L78.0335 -3.05176e-05L80.2458 0.0682456Z" fill="#A2ABBE"/>
<path fill-rule="evenodd" clip-rule="evenodd" d="M96.3388 5.25264L89.6567 19.7534L87.6465 18.8271L94.3286 4.32632L96.3388 5.25264Z" fill="#A2ABBE"/>
<path d="M65.9262 98.9477C65.4614 98.9477 65.0895 98.7617 64.7166 98.4829C64.0658 97.8321 64.0658 96.7166 64.7166 96.0659C68.9939 91.8815 74.6656 89.5575 80.7091 89.5575C86.7516 89.5575 92.4233 91.8815 96.6951 96.0659C97.348 96.7166 97.348 97.8321 96.6951 98.4829C96.0532 99.1336 94.9354 99.1336 94.2825 98.4829C90.657 94.8563 85.822 92.9041 80.7091 92.9041C75.5952 92.9041 70.7601 94.8563 67.1346 98.4829C66.7628 98.7617 66.391 98.9477 65.9262 98.9477Z" fill="#AAB2C5"/>
<path d="M71.7827 74.0308L74.0148 71.7987C74.6656 71.1479 74.6656 70.0324 74.0148 69.3817C73.3641 68.731 72.2486 68.731 71.5968 69.3817L69.3657 71.6127L67.1346 69.3817C66.4839 68.731 65.3684 68.731 64.7166 69.3817C64.0658 70.0324 64.0658 71.1479 64.7166 71.7987L66.9487 74.0308L64.7166 76.2619C64.0658 76.9126 64.0658 78.0281 64.7166 78.6789C65.0895 79.0507 65.4614 79.1437 65.9262 79.1437C66.391 79.1437 66.7628 78.9578 67.1346 78.6789L69.3657 76.4478L71.5968 78.6789C71.9686 79.0507 72.3416 79.1437 72.8064 79.1437C73.2712 79.1437 73.643 78.9578 74.0148 78.6789C74.6656 78.0281 74.6656 76.9126 74.0148 76.2619L71.7827 74.0308Z" fill="#AAB2C5"/>
<path d="M94.3709 74.0309L96.6064 71.7987C97.2593 71.148 97.2593 70.0324 96.6064 69.3817C95.9534 68.731 94.8357 68.731 94.1938 69.3817L91.9583 71.6128L89.7273 69.3817C89.0766 68.731 87.961 68.731 87.3103 69.3817C86.6596 70.0324 86.6596 71.148 87.3103 71.7987L89.5414 74.0309L87.3103 76.2619C86.6596 76.9126 86.6596 78.0282 87.3103 78.6789C87.6822 79.0507 88.054 79.1437 88.5188 79.1437C88.9836 79.1437 89.3554 78.9578 89.7273 78.6789L91.9583 76.4478L94.1938 78.6789C94.559 79.0507 94.9353 79.1437 95.4001 79.1437C95.8649 79.1437 96.2301 78.9578 96.6064 78.6789C97.2593 78.0282 97.2593 76.9126 96.6064 76.2619L94.3709 74.0309Z" fill="#AAB2C5"/>
</svg>
