<svg width="64" height="64" viewBox="0 0 64 64" fill="none" xmlns="http://www.w3.org/2000/svg">
<g id="loading-full 1" clip-path="url(#clip0_3_1790)">
<path id="Vector" d="M48 28.9375C48 31.0592 48.8429 33.0941 50.3431 34.5944C51.8434 36.0946 53.8783 36.9375 56 36.9375C58.1217 36.9375 60.1566 36.0946 61.6569 34.5944C63.1571 33.0941 64 31.0592 64 28.9375C64 26.8158 63.1571 24.7809 61.6569 23.2806C60.1566 21.7804 58.1217 20.9375 56 20.9375C53.8783 20.9375 51.8434 21.7804 50.3431 23.2806C48.8429 24.7809 48 26.8158 48 28.9375Z" fill="#0C9189"/>
<path id="Vector_2" d="M21 6C21 7.5913 21.6321 9.11742 22.7574 10.2426C23.8826 11.3679 25.4087 12 27 12C28.5913 12 30.1174 11.3679 31.2426 10.2426C32.3679 9.11742 33 7.5913 33 6C33 4.4087 32.3679 2.88258 31.2426 1.75736C30.1174 0.632141 28.5913 0 27 0C25.4087 0 23.8826 0.632141 22.7574 1.75736C21.6321 2.88258 21 4.4087 21 6Z" fill="#0C9189"/>
<path id="Vector_3" d="M0 32C0 33.3261 0.526784 34.5979 1.46447 35.5355C2.40215 36.4732 3.67392 37 5 37C6.32608 37 7.59785 36.4732 8.53553 35.5355C9.47322 34.5979 10 33.3261 10 32C10 30.6739 9.47322 29.4021 8.53553 28.4645C7.59785 27.5268 6.32608 27 5 27C3.67392 27 2.40215 27.5268 1.46447 28.4645C0.526784 29.4021 0 30.6739 0 32Z" fill="#0C9189"/>
<path id="Vector_4" d="M22 52C19.7938 52 18 53.7938 18 56C18 58.2062 19.7938 60 22 60C24.2063 60 26 58.2062 26 56C26 53.7938 24.2063 52 22 52ZM53.3625 55.3625C51.6063 57.1187 49.3 58 47 58C44.7 58 42.3938 57.1187 40.6375 55.3625C37.125 51.85 37.125 46.15 40.6375 42.6375C42.3938 40.8813 44.7 40 47 40C49.3 40 51.6063 40.8813 53.3625 42.6375C56.8813 46.15 56.8813 51.85 53.3625 55.3625ZM51.8688 16.15C50.4813 17.5375 48.6563 18.2375 46.8375 18.2375C45.0125 18.2375 43.1938 17.5437 41.8063 16.15C39.025 13.3687 39.025 8.8625 41.8063 6.0875C43.1938 4.69375 45.0125 4 46.8375 4C48.6563 4 50.4813 4.69375 51.8688 6.0875C54.65 8.8625 54.65 13.3687 51.8688 16.15ZM15.4 18.4062C14.325 19.4812 12.9188 20.0187 11.5063 20.0187C10.1 20.0187 8.6875 19.4812 7.6125 18.4062C5.4625 16.2563 5.4625 12.7687 7.6125 10.6187C8.6875 9.54375 10.0938 9.00625 11.5063 9.00625C12.9125 9.00625 14.325 9.54375 15.4 10.6187C17.55 12.7687 17.55 16.2563 15.4 18.4062ZM13.675 49.6813C12.7938 50.5563 11.6438 51 10.4938 51C9.34375 51 8.19375 50.5625 7.31875 49.6813C5.5625 47.925 5.5625 45.0812 7.31875 43.325C8.19375 42.45 9.35 42.0062 10.4938 42.0062C11.6438 42.0062 12.7938 42.4438 13.675 43.325C15.4313 45.0812 15.4313 47.925 13.675 49.6813Z" fill="#0C9189"/>
</g>
<defs>
<clipPath id="clip0_3_1790">
<rect width="64" height="64" fill="white"/>
</clipPath>
</defs>
</svg>
